<?xml version="1.0" standalone="no"?>
<!DOCTYPE svg PUBLIC "-//W3C//DTD SVG 20010904//EN"
 "http://www.w3.org/TR/2001/REC-SVG-20010904/DTD/svg10.dtd">
<svg version="1.0" xmlns="http://www.w3.org/2000/svg"
 width="1200.000000pt" height="628.000000pt" viewBox="0 0 1200.000000 628.000000"
 preserveAspectRatio="xMidYMid meet">
<metadata>
Created by potrace 1.16, written by Peter Selinger 2001-2019
</metadata>
<g transform="translate(0.000000,628.000000) scale(0.100000,-0.100000)"
fill="#000000" stroke="none">
<path d="M4480 4982 c0 -21 -4 -63 -9 -93 -5 -30 -15 -85 -21 -124 -7 -38 -16
-86 -20 -105 -5 -19 -13 -60 -20 -90 -6 -30 -15 -66 -20 -80 -4 -14 -13 -45
-20 -70 -48 -168 -114 -340 -196 -507 -36 -73 -63 -135 -62 -137 2 -2 -6 -15
-18 -28 -12 -13 -24 -30 -27 -38 -11 -26 -80 -136 -125 -199 -23 -34 -40 -61
-37 -61 3 0 -3 -8 -12 -18 -10 -10 -27 -31 -38 -46 -11 -16 -28 -37 -37 -48
-10 -10 -18 -22 -18 -27 0 -5 -4 -11 -8 -13 -4 -1 -23 -23 -42 -48 -89 -114
-382 -409 -507 -511 -40 -32 -80 -65 -90 -73 -56 -46 -138 -106 -145 -106 -4
0 -8 -7 -8 -16 0 -8 -4 -13 -8 -10 -15 9 -92 -54 -92 -75 0 -15 5 -18 23 -14
12 2 42 9 67 15 25 6 84 16 132 22 48 6 86 13 84 17 -6 9 189 2 249 -8 28 -5
84 -15 125 -21 41 -7 86 -17 100 -23 63 -24 77 -31 115 -50 22 -11 42 -23 45
-26 3 -3 24 -19 47 -35 119 -80 250 -261 324 -449 59 -147 109 -406 109 -564
l0 -63 37 3 c34 2 38 6 44 37 12 63 28 117 49 175 4 11 13 40 20 65 7 25 16
54 21 65 4 11 15 41 23 68 18 55 56 148 93 227 14 30 32 73 41 95 8 22 18 45
22 50 4 6 27 46 50 90 83 155 71 133 167 282 29 45 53 87 53 92 0 6 4 11 9 11
5 0 33 33 64 73 30 39 68 88 83 107 40 49 302 310 311 310 5 0 24 15 43 33 39
35 57 48 172 125 42 29 81 52 87 52 6 0 11 4 11 9 0 4 27 20 60 35 33 15 60
32 60 37 0 5 6 9 13 8 6 -2 28 5 47 13 78 36 127 56 165 67 22 7 49 16 60 21
11 5 31 11 45 14 43 8 114 26 130 32 8 4 29 7 45 9 17 1 89 8 162 15 97 8 165
9 265 1 189 -15 241 -22 260 -32 9 -5 28 -9 42 -9 14 0 35 -4 48 -9 13 -5 43
-14 68 -21 25 -7 77 -24 115 -37 39 -13 77 -26 85 -28 45 -10 344 -178 375
-211 6 -5 26 -22 45 -36 19 -14 53 -42 75 -63 22 -20 51 -47 65 -59 14 -12 54
-55 90 -96 36 -41 67 -77 70 -80 13 -12 138 -193 156 -225 33 -60 39 -70 45
-75 3 -3 13 -22 22 -42 10 -20 22 -40 27 -43 6 -4 8 -10 6 -14 -3 -4 4 -17 14
-29 11 -12 20 -27 20 -35 0 -7 20 -52 44 -100 24 -47 41 -89 38 -91 -3 -3 0
-12 7 -20 6 -8 13 -22 16 -32 2 -11 11 -37 21 -59 10 -22 18 -44 19 -50 5 -35
19 -76 26 -81 5 -3 9 -14 9 -25 0 -27 43 -25 63 4 24 35 58 69 112 113 73 60
205 144 226 144 10 0 20 4 23 9 3 4 33 14 66 22 33 7 60 18 60 24 0 6 -23 28
-51 49 -27 22 -74 61 -102 87 -29 27 -55 49 -59 49 -10 0 -266 259 -297 300
-14 19 -36 46 -47 60 -32 37 -103 123 -112 135 -4 6 -25 35 -47 65 -22 30 -42
57 -46 60 -14 11 -109 158 -109 169 0 6 -4 11 -10 11 -5 0 -10 6 -10 13 0 7
-9 23 -20 35 -11 12 -20 24 -20 28 0 4 -18 35 -40 70 -22 35 -40 68 -40 73 0
4 -7 14 -15 21 -9 7 -13 15 -10 18 3 3 1 10 -4 16 -5 6 -39 70 -75 142 -162
324 -292 725 -343 1057 -20 133 -31 144 -73 75 -74 -122 -227 -299 -327 -378
-121 -95 -155 -120 -208 -152 -167 -101 -371 -182 -520 -207 -38 -7 -94 -17
-124 -22 -194 -33 -519 11 -751 102 -165 65 -413 204 -488 274 -15 14 -30 25
-33 25 -6 0 -23 14 -81 66 -15 13 -30 24 -33 24 -9 0 -263 258 -292 297 -15
21 -36 45 -45 54 -10 9 -18 20 -18 24 0 4 -17 28 -39 54 -21 25 -50 65 -65 89
-23 36 -31 42 -61 42 -34 0 -35 -1 -35 -38z"/>
</g>
</svg>
